<?xml version="1.0" standalone="no"?>
<!DOCTYPE svg PUBLIC "-//W3C//DTD SVG 20010904//EN"
 "http://www.w3.org/TR/2001/REC-SVG-20010904/DTD/svg10.dtd">
<svg version="1.0" xmlns="http://www.w3.org/2000/svg"
 width="126.000000pt" height="124.000000pt" viewBox="0 0 126.000000 124.000000"
 preserveAspectRatio="xMidYMid meet">

<g transform="translate(0.000000,124.000000) scale(0.100000,-0.100000)"
fill="#000000" stroke="none">
<path d="M620 1087 c0 -26 5 -47 10 -47 6 0 8 16 4 43 -9 58 -14 59 -14 4z"/>
<path d="M855 1000 c-27 -30 -12 -34 15 -5 13 14 19 25 13 25 -5 0 -18 -9 -28
-20z"/>
<path d="M380 1005 c0 -8 61 -37 67 -31 3 2 -9 12 -26 20 -31 17 -41 19 -41
11z"/>
<path d="M570 981 c-75 -24 -137 -79 -165 -148 -21 -50 -30 -136 -17 -159 9
-16 11 -10 12 32 1 153 84 250 224 261 78 7 126 -8 178 -55 60 -54 82 -104 83
-184 0 -74 9 -89 19 -33 18 96 -37 206 -131 262 -48 28 -154 41 -203 24z"/>
<path d="M600 873 c-59 -22 -78 -87 -35 -121 23 -19 24 -22 10 -48 -14 -28
-12 -44 6 -44 5 0 9 8 9 18 0 26 20 42 53 42 36 0 67 16 67 35 0 18 0 18 -56
4 -37 -10 -48 -9 -69 5 -36 24 -33 61 6 82 26 13 36 14 55 3 19 -9 30 -10 49
-1 15 7 23 17 20 22 -6 10 -89 12 -115 3z"/>
<path d="M520 463 c0 -5 7 -16 15 -27 15 -20 30 -85 40 -178 l6 -58 69 0 68 0
12 88 c7 48 21 107 31 131 22 51 23 55 8 45 -6 -3 -20 -26 -31 -50 -14 -34
-24 -44 -42 -44 -19 0 -22 4 -18 25 3 19 -3 32 -22 50 -31 29 -36 30 -36 11 0
-8 9 -21 21 -30 15 -10 19 -20 14 -35 -8 -28 -73 -30 -81 -3 -13 42 -34 82
-44 82 -5 0 -10 -3 -10 -7z"/>
</g>
</svg>
